<?xml version="1.0" encoding="UTF-8"?>
<svg version="1.1" xmlns="http://www.w3.org/2000/svg" width="277" height="210">
<path d="M0 0 C91.41 0 182.82 0 277 0 C277 69.3 277 138.6 277 210 C185.59 210 94.18 210 0 210 C0 140.7 0 71.4 0 0 Z " fill="#212C57" transform="translate(0,0)"/>
<path d="M0 0 C0 0.66 0 1.32 0 2 C0.88945312 2.40798828 0.88945312 2.40798828 1.796875 2.82421875 C12.87052148 8.73409037 19.64764653 23.16406506 23.15234375 34.65234375 C26.80300095 50.75863221 24.73814953 69.43276723 17 84 C17.85980469 84.17015625 18.71960938 84.3403125 19.60546875 84.515625 C39.43256761 88.58050459 56.24350288 94.82783174 68.75 111.75 C77.51221484 125.14130947 82.29540651 139.90706523 81 156 C80.68228169 157.33714022 80.3514487 158.67132671 80 160 C76.54183314 160.08847317 73.08396421 160.14087725 69.625 160.1875 C68.65949219 160.21263672 67.69398438 160.23777344 66.69921875 160.26367188 C51.51621038 160.41652095 38.36561293 153.79980403 27 144 C26.67 143.67 26.34 143.34 26 143 C25.70609375 144.77890625 25.70609375 144.77890625 25.40625 146.59375 C22.48053535 162.94343179 16.36860159 180.85062348 2.36035156 191.21289062 C0.9271368 192.17285031 -0.53410765 193.09072184 -2 194 C-9.58090345 187.68029568 -15.18458291 181.72052245 -20 173 C-20.39832031 172.32324219 -20.79664063 171.64648438 -21.20703125 170.94921875 C-26.10629143 162.08651214 -27.43067569 151.97299143 -28 142 C-28.46148437 142.43570313 -28.92296875 142.87140625 -29.3984375 143.3203125 C-39.78259127 152.80149638 -52.64757368 160.11364264 -67.046875 160.1328125 C-68.43712891 160.13474609 -68.43712891 160.13474609 -69.85546875 160.13671875 C-71.28826172 160.13091797 -71.28826172 160.13091797 -72.75 160.125 C-74.20599609 160.13080078 -74.20599609 160.13080078 -75.69140625 160.13671875 C-76.61308594 160.13542969 -77.53476563 160.13414062 -78.484375 160.1328125 C-79.32709961 160.13168457 -80.16982422 160.13055664 -81.03808594 160.12939453 C-83 160 -83 160 -84 159 C-85.20801701 139.02125711 -80.61341877 121.80460256 -67.33227539 106.49023438 C-54.518698 92.44295035 -38.3376316 86.67817644 -20 84 C-20.33773437 83.2265625 -20.67546875 82.453125 -21.0234375 81.65625 C-21.46945313 80.6146875 -21.91546875 79.573125 -22.375 78.5 C-22.81585938 77.4790625 -23.25671875 76.458125 -23.7109375 75.40625 C-29.63229085 59.75952236 -28.82956392 40.98447344 -22.62890625 25.59765625 C-19.20469551 18.03483109 -9.56422113 0 0 0 Z " fill="#E44B3E" transform="translate(139,9)"/>
<path d="M0 0 C3.79125867 0.49041157 4.94978413 1.85562346 7.28515625 4.78320312 C7.73246094 5.38068359 8.17976563 5.97816406 8.640625 6.59375 C12.15458595 11.13556984 15.60081491 14.86119241 20.140625 18.40625 C23.198577 16.67065562 25.77442489 15.02152381 28.140625 12.40625 C32.46242501 13.90905773 34.32350049 17.13399039 36.640625 20.84375 C37.03572266 21.46830078 37.43082031 22.09285156 37.83789062 22.73632812 C44.64063976 33.80348717 46.32741253 44.28532285 46.390625 57.09375 C46.41125 58.11919922 46.431875 59.14464844 46.453125 60.20117188 C46.54283047 77.9516418 38.44192317 92.95284922 26.140625 105.40625 C24.19193628 106.85951919 22.2132157 108.12780145 20.140625 109.40625 C12.55972155 103.08654568 6.95604209 97.12677245 2.140625 88.40625 C1.74230469 87.72949219 1.34398437 87.05273438 0.93359375 86.35546875 C-3.96566643 77.49276214 -5.29005069 67.37924143 -5.859375 57.40625 C-6.32085937 57.84195313 -6.78234375 58.27765625 -7.2578125 58.7265625 C-17.64196627 68.20774638 -30.50694868 75.51989264 -44.90625 75.5390625 C-46.29650391 75.54099609 -46.29650391 75.54099609 -47.71484375 75.54296875 C-48.67003906 75.53910156 -49.62523438 75.53523438 -50.609375 75.53125 C-51.58003906 75.53511719 -52.55070312 75.53898437 -53.55078125 75.54296875 C-54.47246094 75.54167969 -55.39414062 75.54039062 -56.34375 75.5390625 C-57.18647461 75.53793457 -58.02919922 75.53680664 -58.89746094 75.53564453 C-60.859375 75.40625 -60.859375 75.40625 -61.859375 74.40625 C-63.06739201 54.42750711 -58.47279377 37.21085256 -45.19165039 21.89648438 C-32.90751287 8.42961533 -17.61898808 2.50324421 0 0 Z " fill="#E99B3E" transform="translate(116.859375,93.59375)"/>
<path d="M0 0 C3.1015625 0.36328125 3.1015625 0.36328125 5.65625 2.76953125 C6.42195313 3.79046875 7.18765625 4.81140625 7.9765625 5.86328125 C9.14832031 7.3946875 9.14832031 7.3946875 10.34375 8.95703125 C10.92382812 9.75109375 11.50390625 10.54515625 12.1015625 11.36328125 C11.46541016 12.31074219 11.46541016 12.31074219 10.81640625 13.27734375 C0.22126698 29.08454611 0.22126698 29.08454611 -3.91015625 47.23046875 C-4.03917831 55.19013743 -4.03917831 55.19013743 -6.609375 58.69921875 C-8.92935331 60.82383047 -11.28875137 62.60774578 -13.8984375 64.36328125 C-14.70152344 64.91757813 -15.50460938 65.471875 -16.33203125 66.04296875 C-24.92435468 71.56955118 -34.6369531 75.48237018 -44.9453125 75.49609375 C-46.33556641 75.49802734 -46.33556641 75.49802734 -47.75390625 75.5 C-48.70910156 75.49613281 -49.66429688 75.49226563 -50.6484375 75.48828125 C-51.61910156 75.49214844 -52.58976562 75.49601562 -53.58984375 75.5 C-54.51152344 75.49871094 -55.43320312 75.49742187 -56.3828125 75.49609375 C-57.22553711 75.49496582 -58.06826172 75.49383789 -58.93652344 75.49267578 C-60.8984375 75.36328125 -60.8984375 75.36328125 -61.8984375 74.36328125 C-63.10645451 54.38453836 -58.51185627 37.16788381 -45.23071289 21.85351562 C-33.04153384 8.49074776 -17.59719079 2.20557782 0 0 Z " fill="#ECB768" transform="translate(116.8984375,93.63671875)"/>
<path d="M0 0 C11.77193948 -2.22812735 24.8584676 2.18066045 34.875 8.25 C51.35166295 19.70449691 61.76351697 34.68145698 65.5390625 54.55859375 C66.41919259 61.12973452 66.70259635 67.56323042 65 74 C61.54183314 74.08847317 58.08396421 74.14087725 54.625 74.1875 C53.65949219 74.21263672 52.69398438 74.23777344 51.69921875 74.26367188 C36.51621038 74.41652095 23.36561293 67.79980403 12 58 C11.505 57.505 11.505 57.505 11 57 C10.67 58.98 10.34 60.96 10 63 C9.67 63 9.34 63 9 63 C8.96261719 61.76765625 8.92523438 60.5353125 8.88671875 59.265625 C8.19669473 40.48670684 4.48886656 25.6319265 -8 11 C-7.59007812 10.45730469 -7.18015625 9.91460937 -6.7578125 9.35546875 C-6.21898437 8.64003906 -5.68015625 7.92460938 -5.125 7.1875 C-4.59132812 6.47980469 -4.05765625 5.77210937 -3.5078125 5.04296875 C-2.29185219 3.39543703 -1.13583859 1.70375789 0 0 Z " fill="#DE6842" transform="translate(154,95)"/>
</svg>
